<svg width="16" height="16" viewBox="0 0 16 16" fill="none" xmlns="http://www.w3.org/2000/svg">
<path fill-rule="evenodd" clip-rule="evenodd" d="M4.53846 2H4.33832L4.19345 2.1381L2.65499 3.60477L2.5 3.75253V3.96667V13.5V14H3H11.4615H11.6617L11.8065 13.8619L13.345 12.3952L13.5 12.2475V12.0333V2.5V2H13H4.53846ZM4.2491 3.46667L4.73861 3H11.7509L11.2614 3.46667H9.92308H7.61538H4.2491ZM11.9615 4.1808L12.5 3.66747V11.8192L11.9615 12.3325V4.1808ZM10.9615 4.46667V13H3.5V4.46667H7.11538V8V8.69449L7.774 8.47417L8.79746 8.13181L9.75617 8.47132L10.4231 8.70749V8V4.46667H10.9615ZM8.11538 7.30551V4.46667H9.42308V7.29251L8.96901 7.13171L8.80673 7.07424L8.64348 7.12885L8.11538 7.30551ZM5 10H7.30769H9.61538V9.00001H7.30769H5V10ZM9.61538 12V11H5V12H9.61538Z" fill="#939498"/>
</svg>
