<svg xmlns="http://www.w3.org/2000/svg" width="17" height="16" viewBox="0 0 17 16">
  <path fill="#949599" fill-rule="evenodd" d="M12.2678987,13.3029789 C12.9582102,13.3029789 13.5169544,12.7327798 13.5169544,12.030213 C13.5169544,11.3267978 12.9582102,10.7574472 12.2678987,10.7574472 C11.5784199,10.7574472 11.0188429,11.3267978 11.0188429,12.030213 C11.0188429,12.7327798 11.5784199,13.3029789 12.2678987,13.3029789 Z M14.3496583,12.030213 C14.3496583,12.264402 14.3030269,12.4867117 14.2339125,12.6971423 L15,13.1477014 L14.5836481,13.8825116 L13.8183932,13.432801 C13.5252815,13.7696597 13.1339107,14.0157277 12.6842506,14.1090639 L12.6842506,15 L11.8515467,15 L11.8515467,14.1090639 C11.401054,14.0157277 11.0105159,13.7696597 10.7165714,13.432801 L9.95214927,13.8825116 L9.53579734,13.1477014 L10.3018849,12.6971423 C10.2327705,12.4867117 10.186139,12.264402 10.186139,12.030213 C10.186139,11.7960241 10.2327705,11.5737144 10.3018849,11.3632837 L9.53579734,10.9127246 L9.95214927,10.1779145 L10.7165714,10.6276251 C11.0105159,10.2907664 11.401054,10.0446983 11.8515467,9.95136216 L11.8515467,9.06042607 L12.6842506,9.06042607 L12.6842506,9.95136216 C13.1339107,10.0446983 13.5252815,10.2907664 13.8183932,10.6276251 L14.5836481,10.1779145 L15,10.9127246 L14.2339125,11.3632837 C14.3030269,11.5737144 14.3496583,11.7960241 14.3496583,12.030213 Z M6.03123175,6.09510743 C6.50128175,6.09510743 6.88123175,5.71430743 6.88123175,5.24510743 C6.88123175,4.77590743 6.50128175,4.39510743 6.03123175,4.39510743 C5.56118175,4.39510743 5.18123175,4.77590743 5.18123175,5.24510743 C5.18123175,5.71430743 5.56118175,6.09510743 6.03123175,6.09510743 Z M6.03123175,3.54510743 C6.96963175,3.54510743 7.73123175,4.30670743 7.73123175,5.24510743 C7.73123175,6.18350743 6.96963175,6.94510743 6.03123175,6.94510743 C5.09283175,6.94510743 4.33123175,6.18350743 4.33123175,5.24510743 C4.33123175,4.30670743 5.09283175,3.54510743 6.03123175,3.54510743 Z M12.1199272,6.63920119 L13.4905577,8.03584957 L13.4905577,1.84851056 L1.83270385,1.84851056 L1.83270385,11.4298918 L4.86957479,8.33622231 L5.16351924,8.03584957 L5.45829641,8.33622231 L7.66163079,10.5813813 L11.5312056,6.63920119 L11.82515,6.33882845 L12.1199272,6.63920119 L11.82515,6.93957393 L12.1199272,6.63920119 Z M1.83270385,12.6305343 L1.83270385,13.7276584 L4.57479762,13.7276584 L7.07290917,11.1821267 L5.16351924,9.23649201 L1.83270385,12.6305343 Z M11.82515,7.53947089 L5.75307357,13.7276584 L8.91068656,13.7276584 L8.91068656,14.576169 L1.41635192,14.576169 L1,14.576169 L1,14.1519137 L1,1.42425528 L1,1 L1.41635192,1 L13.9069097,1 L14.3232616,1 L14.3232616,1.42425528 L14.3232616,9.90936089 L13.4905577,9.90936089 L13.4905577,9.23649201 L11.82515,7.53947089 Z" transform="translate(1)"/>
</svg>
