<svg xmlns="http://www.w3.org/2000/svg" width="17" height="16" viewBox="0 0 17 16">
  <path fill="#949599" fill-rule="evenodd" d="M1,1 L14.3338095,1 L14.3338095,1.40462896 L14.3338095,9.4963988 L13.5004464,9.4963988 L13.5004464,8.85546654 L11.8337203,7.23775997 L5.75600319,13.1380594 L8.91694941,13.1380594 L8.91694941,13.9481266 L1.41668155,13.9481266 L1,13.9481266 L1,13.5434976 L1,1.40462896 L1,1 Z M1.8333631,1.80925791 L1.8333631,10.9482075 L4.87263831,7.99684389 L5.16681548,7.71117585 L5.46099265,7.99684389 L7.66690477,10.1389496 L11.5395431,6.37832807 L11.8337203,6.09266003 L12.1278974,6.37832807 L13.5004464,7.71117585 L13.5004464,1.80925791 L1.8333631,1.80925791 Z M12.1278974,6.37832807 L11.8337203,6.66480537 L12.1278974,6.37832807 Z M1.8333631,12.0924982 L1.8333631,13.1380594 L4.57762777,13.1380594 L7.07771706,10.7110949 L5.16681548,8.85465728 L1.8333631,12.0924982 Z M6.03345239,5.97761188 C6.50350239,5.97761188 6.88345239,5.59681188 6.88345239,5.12761188 C6.88345239,4.65841188 6.50350239,4.27761188 6.03345239,4.27761188 C5.56340239,4.27761188 5.18345239,4.65841188 5.18345239,5.12761188 C5.18345239,5.59681188 5.56340239,5.97761188 6.03345239,5.97761188 Z M6.03345239,3.42761188 C6.97185239,3.42761188 7.73345239,4.18921188 7.73345239,5.12761188 C7.73345239,6.06601188 6.97185239,6.82761188 6.03345239,6.82761188 C5.09505239,6.82761188 4.33345239,6.06601188 4.33345239,5.12761188 C4.33345239,4.18921188 5.09505239,3.42761188 6.03345239,3.42761188 Z M11.8101361,12.5914057 L13.1776849,11.2140487 L13.6568687,11.6639961 L12.0493113,13.2825119 L11.8101361,13.5244801 L11.5701275,13.2825119 L10.6775956,12.3834264 L11.1567794,11.9342883 L11.8101361,12.5914057 Z M12.0843688,14.3525937 C13.2460102,14.3525937 14.1876193,13.4106175 14.1876193,12.2485231 C14.1876193,11.0864287 13.2460102,10.1444525 12.0843688,10.1444525 C10.9219184,10.1444525 9.98030936,11.0864287 9.98030936,12.2485231 C9.98030936,13.4106175 10.9219184,14.3525937 12.0843688,14.3525937 Z M12.0843688,9.49704621 C13.6035628,9.49704621 14.8339643,10.7287367 14.8339643,12.2485231 C14.8339643,13.7683095 13.6035628,15 12.0843688,15 C10.5651748,15 9.33396431,13.7683095 9.33396431,12.2485231 C9.33396431,10.7287367 10.5651748,9.49704621 12.0843688,9.49704621 Z" transform="translate(1)"/>
</svg>
