<?xml version="1.0" encoding="UTF-8"?>
<svg width="16px" height="16px" viewBox="0 0 16 16" version="1.1" xmlns="http://www.w3.org/2000/svg" xmlns:xlink="http://www.w3.org/1999/xlink">
    <!-- Generator: Sketch 52.3 (67297) - http://www.bohemiancoding.com/sketch -->
    <title>light/aside/more</title>
    <desc>Created with Sketch.</desc>
    <g id="light/aside/more" stroke="none" stroke-width="1" fill="none" fill-rule="evenodd">
        <path d="M8,4.5 C7.17157288,4.5 6.5,3.82842712 6.5,3 C6.5,2.17157288 7.17157288,1.5 8,1.5 C8.82842712,1.5 9.5,2.17157288 9.5,3 C9.5,3.82842712 8.82842712,4.5 8,4.5 Z M8,9.5 C7.17157288,9.5 6.5,8.82842712 6.5,8 C6.5,7.17157288 7.17157288,6.5 8,6.5 C8.82842712,6.5 9.5,7.17157288 9.5,8 C9.5,8.82842712 8.82842712,9.5 8,9.5 Z M8,14.5 C7.17157288,14.5 6.5,13.8284271 6.5,13 C6.5,12.1715729 7.17157288,11.5 8,11.5 C8.82842712,11.5 9.5,12.1715729 9.5,13 C9.5,13.8284271 8.82842712,14.5 8,14.5 Z" id="Oval" fill="#A3ABB0"></path>
    </g>
</svg>